<svg version="1.0" xmlns="http://www.w3.org/2000/svg"
 width="512.000000pt" height="512.000000pt" viewBox="0 0 512.000000 512.000000"
 preserveAspectRatio="xMidYMid meet">

<g transform="translate(0.000000,512.000000) scale(0.100000,-0.100000)"
fill="#ffffff" stroke="none">
<path d="M3295 4441 c-56 -16 -83 -30 -119 -62 -21 -17 -172 -211 -338 -430
-166 -220 -304 -399 -308 -399 -11 0 -331 426 -396 526 -79 123 -175 245 -218
278 -20 15 -62 39 -94 54 -52 24 -70 27 -209 30 -237 6 -391 -35 -566 -152
-186 -123 -323 -315 -388 -541 l-23 -80 -3 -1275 c-3 -901 0 -1290 7 -1327 26
-125 125 -260 235 -323 137 -77 325 -81 467 -9 60 31 162 133 195 196 60 113
57 55 63 1150 l5 1011 110 -146 c220 -292 354 -405 567 -478 304 -103 633 -9
878 253 36 38 130 155 210 261 l145 192 5 -1058 c5 -1151 1 -1067 60 -1183 31
-59 123 -153 184 -188 145 -83 353 -81 490 2 107 66 204 205 226 326 6 34 10
506 10 1281 0 1330 1 1306 -55 1469 -103 303 -372 540 -687 605 -87 18 -407
30 -453 17z m-1678 -134 c-23 -29 -54 -77 -67 -107 l-25 -55 -5 -1535 c-4
-1376 -7 -1539 -21 -1577 -43 -111 -119 -195 -217 -241 -51 -24 -69 -27 -167
-27 -98 0 -116 3 -165 26 -85 40 -154 108 -197 197 l-38 76 0 1295 0 1296 28
90 c97 310 335 533 642 600 33 7 108 14 168 14 l107 1 -43 -53z m1734 22 c49
-24 113 -91 140 -147 24 -47 24 -49 27 -462 l2 -415 -157 -207 -158 -207 -40
0 c-22 -1 -56 4 -75 9 -84 23 -119 59 -317 320 -118 156 -189 258 -184 264 4
6 140 187 302 401 161 215 311 409 332 432 43 47 56 48 128 12z m471 -9 c271
-90 467 -295 555 -575 l28 -90 0 -1295 0 -1295 -32 -67 c-42 -90 -110 -160
-192 -201 -62 -30 -72 -32 -176 -32 -98 0 -116 3 -165 26 -85 40 -154 108
-197 197 l-38 76 -5 1540 -5 1541 -25 55 c-13 30 -44 79 -68 109 l-44 54 133
-5 c117 -4 146 -9 231 -38z m-1980 -7 c14 -16 222 -289 463 -608 573 -758 588
-778 634 -814 45 -35 117 -70 146 -71 11 0 27 -5 35 -10 12 -8 10 -14 -15 -41
-99 -106 -273 -211 -405 -246 -87 -23 -253 -23 -340 0 -138 37 -287 126 -392
234 -26 26 -119 143 -207 258 l-161 210 2 455 3 455 24 45 c34 64 56 90 108
127 57 40 72 41 105 6z"/>
</g>
</svg>